<?xml version="1.0" encoding="iso-8859-1"?>
<!-- Generator: Adobe Illustrator 19.0.0, SVG Export Plug-In . SVG Version: 6.00 Build 0)  -->
<svg version="1.1" id="Capa_1" xmlns="http://www.w3.org/2000/svg" xmlns:xlink="http://www.w3.org/1999/xlink" x="0px" y="0px"
	 viewBox="0 0 512 512" style="enable-background:new 0 0 512 512;" xml:space="preserve">
<g>
	<g>
		<path d="M368.655,81.391C332.018,29.667,274.551,0,210.993,0C146.356,0,88.32,30.48,51.766,83.625
			c-36.13,52.537-44.297,118.902-21.912,177.339c5.945,16.056,15.399,31.65,28.018,46.258l140.396,164.91
			c3.176,3.733,7.833,5.883,12.73,5.883c4.897,0,9.555-2.151,12.725-5.878l31.756-37.328l-25.461-21.667l-19.031,22.374
			L83.25,285.472c-10.073-11.666-17.488-23.817-22.112-36.286c-18.519-48.342-11.722-103.152,18.174-146.619
			c30.219-43.941,78.215-69.139,131.683-69.139c52.576,0,100.099,24.525,130.385,67.284c30.04,42.414,37.885,96.411,20.987,144.446
			l31.533,11.092C414.389,198.003,404.957,132.635,368.655,81.391z"/>
	</g>
</g>
<g>
	<g>
		<path d="M210.993,99.169c-51.612,0-93.597,41.991-93.597,93.597s41.985,93.597,93.597,93.597
			c51.612,0,93.597-41.991,93.597-93.597S262.606,99.169,210.993,99.169z M210.993,252.936c-33.177,0-60.17-26.993-60.17-60.17
			s26.993-60.17,60.17-60.17c33.182,0,60.17,26.993,60.17,60.17S244.17,252.936,210.993,252.936z"/>
	</g>
</g>
<g>
	<g>
		<path d="M354.732,232.317c-77.106,0-139.839,62.733-139.839,139.839c0,77.112,62.733,139.844,139.839,139.844
			c77.112,0,139.844-62.727,139.844-139.844C494.577,295.049,431.844,232.317,354.732,232.317z M354.732,478.578
			c-58.677,0-106.411-47.74-106.411-106.417c0-58.677,47.74-106.411,106.411-106.411c58.682,0,106.417,47.74,106.417,106.411
			C461.149,430.843,413.409,478.578,354.732,478.578z"/>
	</g>
</g>
<g>
	<g>
		<path d="M354.732,300.292c-9.232,0-16.714,7.482-16.714,16.714v121.454c0,9.232,7.482,16.714,16.714,16.714
			c9.237,0,16.714-7.482,16.714-16.714V317.005C371.446,307.774,363.964,300.292,354.732,300.292z"/>
	</g>
</g>
<g>
	<g>
		<path d="M421.71,358.673l-55.156-55.156c-6.268-6.268-17.366-6.268-23.633,0l-55.15,55.156c-6.53,6.529-6.53,17.109,0,23.633
			c6.53,6.53,17.115,6.53,23.633,0l43.333-43.333l43.339,43.333c3.265,3.265,7.538,4.897,11.817,4.897
			c4.273,0,8.552-1.632,11.817-4.897C428.24,375.782,428.24,365.197,421.71,358.673z"/>
	</g>
</g>
<g>
</g>
<g>
</g>
<g>
</g>
<g>
</g>
<g>
</g>
<g>
</g>
<g>
</g>
<g>
</g>
<g>
</g>
<g>
</g>
<g>
</g>
<g>
</g>
<g>
</g>
<g>
</g>
<g>
</g>
</svg>
